<?xml version="1.0" encoding="UTF-8"?>
<svg id="Calque_1" data-name="Calque 1" xmlns="http://www.w3.org/2000/svg" viewBox="0 0 1051.28 840.81">
  <defs>
    <style>
      .cls-1 {
        fill: #AD5100;
      }

      .cls-2 {
        fill: #2c3e50;
      }
    </style>
  </defs>
  <path class="cls-1" d="M654.95,175.35v-36.72h88.93l-.02,486.1c-5.97,94.75-40.01,178.8-138.36,205.72-107.55,29.43-283,.31-281.12-140.95h90.86c-1.5,75.09,81.3,88.37,139.85,78.94,100.16-16.13,100.93-106.33,99.85-189.11-53.19,65.26-137.63,86.31-217.01,57.53-152.81-55.42-162.38-319.01-75.69-432.35,71.6-93.6,203.17-102.51,292.71-29.16ZM511.5,197.18c-123.48,12.68-128.19,214.8-96.29,301.96,45.71,124.92,181.65,88.43,239.34-4.31l.51-233.57c-.87-6.54-13.06-17.33-18.52-22.07-33.27-28.82-80.65-46.57-125.03-42.01h0Z"/>
  <path class="cls-2" d="M743.88,0c28.07,2.23,54.9,3.77,82.19,11.57,150.87,43.12,98.94,181.33,109.12,298.73,5.28,60.88,65.09,73.95,116.09,75.46l-.02,70.41c-50.88-1.65-111.38,14.7-116.07,74.34-5.49,69.8,16.07,181.28-22.69,240.18-34.88,53.01-108.93,69.41-168.62,70.11v-69.58c49.69-2.84,101.06-19.44,106.29-76.38,5.69-61.94-14.6-169.04,17.06-220.69,19.18-31.3,54.96-44.75,89.32-51.83.4-3.18-2.42-3.93-4.72-4.95-22.64-10.06-39.79-8-62.8-26.12-61.97-48.78-32.46-173.62-38.86-245.28-5.26-59.01-54.81-73.99-106.29-76.38V0h0Z"/>
  <path class="cls-2" d="M307.39,0v69.58c-53.17,2.33-101.3,20.59-106.3,80.24-4.37,52.1,3.92,110.1.04,162.41-4.47,60.44-45.85,96.94-104.44,103.39l-.05,6.71c57.94,8.39,100.02,43.6,104.49,104.3,3.77,51.18-11.48,165.04,11.91,204.57,18.79,31.76,60.56,38.12,94.34,40.01v69.58c-74.48-1.46-163.59-24.8-184.64-106.29-16.13-62.45,13.01-200.55-21.41-245.33-12.48-16.23-38.56-27.1-58.35-30.57-14.37-2.52-28.91-1.24-42.7-4.66l-.28-69.32c61.91-1.52,113.2-15.45,118.01-85.92,4.62-67.64-16.02-174.82,22.33-230.88C175.83,15.95,248.51,1.76,307.38,0h.01Z"/>
</svg>