<?xml version="1.0" encoding="UTF-8"?>
<svg id="Calque_1" data-name="Calque 1" xmlns="http://www.w3.org/2000/svg" viewBox="0 0 938.31 745.91">
  <defs>
    <style>
      .cls-1 {
        fill: #b75777;
      }
    </style>
  </defs>
  <path class="cls-1" d="M552.24,528.95c13.47-13.34,23.71-24.12,30.68-31.61,5.68-6.1,9.83-10.61,16.73-16.73,6.71-5.95,7.07-5.35,20.45-15.8,14.57-11.38,14.8-12.62,20.45-15.8,9.68-5.46,15.4-5.44,25.1-8.37,15.84-4.77,26.26-12.54,38.12-21.38,18.7-13.94,16.03-18.62,38.12-39.05,16.65-15.4,18.13-12.71,39.98-31.61,9.74-8.42,23.33-20.28,38.12-38.12,15.11-18.23,22.66-27.34,26.96-41.84,3.46-11.66.96-13.2,5.58-39.05,4.2-23.47,6.57-23.95,5.58-31.61-2.04-15.75-13.62-25.88-29.75-39.98-3.8-3.33-21.17-18.17-47.41-27.89-11.11-4.11-19.52-5.72-25.1-6.51-12.79-1.8-26.8-1.53-26.96,0-.2,1.88,21.04,2.5,42.77,10.23,7.1,2.52,53.58,19.07,68.8,57.64,14.69,37.25-7.31,75.93-18.59,95.76-18.25,32.08-46.51,53.13-102.27,93.9-35.85,26.22-45.05,29.91-58.51,39.28,0,0-8.49,6.03-17.73,13.71-14.4,11.98-48.45,46.45-91.11,94.83Z"/>
  <path class="cls-1" d="M507.62,513.15c-32.48-1.3-60.08-6.13-115.28-15.8-52.65-9.23-88.76-20.14-123.65-30.68-26.26-7.94-56.03-17.86-87.39-40.91-15.83-11.63-36.76-27.37-34.4-43.7,3.04-21.09,42.68-27.33,40.91-34.4-1.57-6.24-34.88-11-52.06,7.44-10.26,11.02-10.23,25.45-10.23,28.82.04,20.19,13.52,34.54,24.17,45.56,15.9,16.45,33.29,26.2,52.06,34.4,33.79,14.75,55.35,17.12,103.2,27.89,18.33,4.12,44.93,10.47,77.17,19.52,33.85,3.81,60.04,7.97,78.09,11.16,10.96,1.93,43.15,7.77,75.31,0,11.01-2.66,11.18-4.3,11.16-4.65-.23-3.47-27.5-4.19-39.05-4.65Z"/>
  <path class="cls-1" d="M250.09,432.26c-1.44,1.05-53.96-50.61-83.67-131.09-15.02-40.68-35.46-96.05-8.37-134.81,12.27-17.56,39.2-38.7,67.87-44.63,4.75-.98,9.23-1.48,11.27-1.68,29.4-2.9,57.77,5.5,57.53,10.05-.39,7.46-76.91-11.96-112.49,27.89-20.47,22.92-18.92,55.95-17.66,82.74,1.94,41.43,16.78,71.8,36.26,110.63,26.27,52.39,50.29,80.14,49.27,80.88Z"/>
  <path class="cls-1" d="M265.48,246.84c-7.25,4.27-13.34,16.13-10.23,22.31,3.27,6.51,15.56,4.39,30.31,6.49,5.82.83,16.85,2.99,51.13,23.86,42.89,26.11,63.69,45.89,64.52,44.96,1.91-2.15-102.25-117.33-135.74-97.62Z"/>
  <path class="cls-1" d="M443.99,343.53c1.62,3.61,101.65-35.45,169.21-103.2,17.65-17.7,30.99-35.26,26.03-49.27-5.04-14.25-27.53-20.65-29.75-17.66-2.03,2.73,13.92,11.9,13.95,26.03.02,13.63-14.77,23.92-20.45,27.89-55.82,39-160.74,112.31-158.98,116.21Z"/>
  <path class="cls-1" d="M338,205c-6.24-7.02-32.92,1.24-34.4,12.09-1.07,7.88,11.37,15.54,19.52,20.45,58.12,35.01,183.87,44.43,184.08,39.98.24-5.17-169.63-11.92-172.92-49.27-.79-8.97,8.15-18.25,3.72-23.24Z"/>
  <path class="cls-1" d="M412.38,243.12c-.03.83,100.02,31.26,148.75-21.38,21.2-22.9,34.79-63.79,18.59-89.25-13.76-21.63-45.92-27.26-48.34-23.24-1.91,3.15,15.31,10.88,24.17,32.54,1.91,4.67,8.22,21.68,2.79,40.91-1.62,5.75-6.94,21.03-27.89,36.26-48.93,35.56-118.05,23.48-118.07,24.17Z"/>
  <path class="cls-1" d="M413.3,157.59c-.7,5.29-22.32-.5-36.26,13.02-12.78,12.4-8,30.28-16.73,32.54-6.93,1.8-15.77-7.96-19.52-15.8-6.04-12.64-3.5-30.04,7.44-39.05,9.19-7.56,20.59-6.14,32.54-4.65,15.99,2,33.17,9.19,32.54,13.95Z"/>
  <path class="cls-1" d="M285.01,222.67c3.09-.31-6.45-33.97,8.37-70.66,12.92-32.01,37.79-50.01,48.34-56.71,7.03-4.46,32.21-20.01,65.08-19.52,14.17.21,24.07,3.31,24.17,2.79.18-.89-28.23-13.46-59.5-8.37-28.56,4.65-47.45,22.07-55.78,29.75-8.45,7.79-34.59,32.61-39.05,71.59-3.14,27.53,5.75,51.4,8.37,51.13Z"/>
  <path class="cls-1" d="M428.18,183.62c-13.73-10.93-2.23-42.69,4.65-79.95,12.65-68.54-.54-102.05,6.92-103.61,16.3-3.41,69.97,158.48,38.63,179.85-1.73,1.18-12.68,8.06-27.89,8.37-5.96.12-16.07.32-22.31-4.65Z"/>
  <path class="cls-1" d="M443.06,231.96c2.68-4.05,5.6-9.88,5.89-17.04.37-9.13-3.79-14.05-.93-17.66,3.07-3.87,12.52-4.14,15.8,0,4.99,6.29-7.1,19.2-.93,28.82,2.1,3.28,5.04,4.18,4.65,5.58-.79,2.82-13.43,1.75-24.48.31Z"/>
  <path class="cls-1" d="M500.8,153.56c.26-1.38,17.63-4.12,30.58,6.2,10.26,8.17,15.37,22.66,11.98,35.54-5.42,20.57-30.19,28.09-31.82,26.03-1.73-2.2,22.42-15.73,21.49-35.54-.57-12.12-10.28-21.14-11.57-22.31-9.6-8.69-20.87-8.79-20.66-9.92Z"/>
  <path class="cls-1" d="M186.87,118.13c-2.27-2.19,24.79-56.7,71.59-63.22,38.07-5.31,70.33,23.76,69.73,25.1-.5,1.12-24.26-16.3-54.85-12.09-15.46,2.13-26.68,8.96-45.56,20.45-28.41,17.3-39.65,30.96-40.91,29.75Z"/>
  <path class="cls-1" d="M371.88,53.98c-.92-2.3,78.47-59.34,152.47-34.4,31.83,10.73,55.62,34.25,53.92,37.19-1.87,3.24-33.52-20.53-78.1-27.89-71.8-11.86-127.53,27.02-128.3,25.1Z"/>
  <path class="cls-1" d="M137.6,163.68c-4.62-1.34-8.19,44.34-42.77,83.67C53.42,294.46-.2,295.76,0,320.8c.09,11.26,10.93,11.37,31.61,41.84,16.96,24.99,14.17,31.53,26.96,48.34,23.47,30.86,60.69,45.35,64.15,40.91.72-.93.92-3.88-41.84-50.2-52.49-56.87-64.65-65.27-62.29-79.02,3.05-17.77,25.27-14.94,68.8-53.92,26.65-23.87,35.43-40.25,38.12-45.56,14.26-28.17,15.83-58.42,12.09-59.5Z"/>
  <path class="cls-1" d="M116.21,463.04c-3.6-1.43-29.79,29.23-28.82,64.15,1.47,52.79,64.16,83.76,77.17,90.18,26.57,13.13,29.71,5.63,67.87,21.38,48.45,20,47.62,33.83,79.02,41.84,17.42,4.44,45.63-.39,101.34-10.23,50.72-8.96,76.38-13.59,91.11-21.38,27.62-14.61,30.75-26.31,71.59-47.41,22.34-11.55,39.02-17.14,38.12-20.45-.91-3.35-19.37-2.89-36.26,2.79-19.09,6.41-29.66,17.29-39.05,25.1-16.77,13.96-34.73,20.46-70.66,33.47-39.15,14.17-88.79,32.15-142.24,19.52-35.73-8.44-27.51-19.77-84.6-39.05-33.72-11.39-50.54-12.15-80.88-28.82-23.94-13.16-40.26-22.13-47.41-40.91-6.64-17.43-3.62-38.7,0-64.15,2.52-17.73,5.38-25.37,3.72-26.03Z"/>
  <path class="cls-1" d="M653.58,579.26c1,2.58,34.05-15.84,91.11-25.1,28.64-4.65,45.58-4.11,66.01-17.66,16.73-11.1,25.63-24.9,31.61-34.4,6.37-10.12,33.27-52.8,19.52-99.48-10.65-36.18-40.99-58.68-43.7-56.71-2.13,1.55,12.97,18.25,22.31,50.2,5.27,18.02,12.45,42.56,2.79,69.73-7.83,22.01-22.81,34.82-27.89,39.05-18.84,15.7-37.84,18.93-54.85,23.24-61.47,15.57-108.13,48-106.92,51.13Z"/>
  <path class="cls-1" d="M885.08,411.91c16.57-14.36,22.75-30.54,31.61-51.13,19.5-45.32,22.63-43.86,21.38-52.06-2.14-14.07-15.06-25.77-40.91-49.17-14.97-13.55-27.07-22.39-27.89-21.49-1.16,1.28,23.25,19.13,39.05,52.48,4.93,10.4,8.4,17.72,9.3,28.41,1.66,19.71-6.72,35.21-19.63,58.36-13.83,24.82-27.13,40.13-25,42.04,1.69,1.51,11.42-6.86,12.09-7.44Z"/>
  <path class="cls-1" d="M390.48,701.15c-1.63,4.85,71.71,47.42,154.95,44.63,49.28-1.65,78.4-18.41,86.77-23.55,3.98-2.45,14.23-9.01,25.52-19.82,8.93-8.56,37.11-35.55,40.18-73.15,1.05-12.84-.83-26.94-3.72-27.27-2.81-.32-5.58,12.5-11.16,27.27,0,0-9.67,25.62-27.27,49.58-26.89,36.61-81.97,42.82-97.93,44.63-24.65,2.78-57.75-3.1-123.96-14.88-36.24-6.44-42.91-8.85-43.39-7.44Z"/>
  <path class="cls-1" d="M725.17,595.79c.36.93,69.7-7.2,114.04-58.26,35.66-41.07,45.18-98.43,43.39-99.17-.88-.36-6.71,11.97-10.33,19.63-10.64,22.5-14.37,36.59-17.66,45.04-9.23,23.63-28.09,36.48-58.26,57.02-39.46,26.87-71.43,35.09-71.17,35.74Z"/>
  <path class="cls-1" d="M402.97,470.64c44.9-27.9,83.28-52.38,113.53-71.9,48.43-31.26,113.33-73.91,180.26-139.15,31.44-30.64,48.62-51.93,50.2-80.88,2.19-39.98-26.69-70.15-31.92-75.62-28.43-29.69-63.91-34.58-80.57-36.88-55.31-7.62-101.14,16.24-100.41,19.52.75,3.35,49.17-17.09,103.86,1.79,10.75,3.71,36.57,12.99,57.64,38.43,1.43,1.73,20.41,25.01,24.17,48.34,7.03,43.57-39.59,83.24-131.75,159.67-59.74,49.55-124.16,94.44-159.44,119.03-10.69,7.45-19.57,13.54-25.57,17.64Z"/>
  <path class="cls-1" d="M241.83,258.98c-5.72,1.16-19.54,4.8-28.1,16.94-6.86,9.73-7.62,21.07-7.02,26.03,4.55,37.76,130.98,61.88,236.76,64.05,48.21.99,97.9-2.47,97.93-5.37.02-1.52-13.59-2.81-74.43-7.52-88.04-6.82-116.58-8.54-156.13-17.68-39.81-9.2-81.56-19.31-85.53-42.56-2.17-12.72,7.67-25.24,16.53-33.88Z"/>
</svg>